<?xml version="1.0" encoding="UTF-8"?>
<!DOCTYPE svg PUBLIC "-//W3C//DTD SVG 1.0//EN" "http://www.w3.org/TR/2001/REC-SVG-20010904/DTD/svg10.dtd">
<!-- Creator: CorelDRAW X8 -->
<svg xmlns="http://www.w3.org/2000/svg" xml:space="preserve" width="1280px" height="300px" version="1.0" shape-rendering="geometricPrecision" text-rendering="geometricPrecision" image-rendering="optimizeQuality" fill-rule="evenodd" clip-rule="evenodd"
viewBox="0 0 1280 300"
 xmlns:xlink="http://www.w3.org/1999/xlink">
 <g id="Layer_x0020_1">
  <metadata id="CorelCorpID_0Corel-Layer"/>
  <path fill="#333333" fill-rule="nonzero" d="M402 145l4 0c2,0 3,0 5,1 2,0 2,1 2,3 1,4 -1,6 -7,6 -1,0 -3,0 -4,0 -1,0 -2,0 -3,0 -1,0 -1,0 -1,0 1,3 2,7 3,10 1,4 3,8 4,11 4,10 7,16 10,20 -1,2 -3,4 -6,5 -2,2 -3,3 -3,3 0,0 -1,-1 -1,-1l-21 -45 -42 10 -2 7c-3,11 -6,20 -10,24 0,1 -1,1 -3,0 -4,-1 -5,-2 -5,-3 0,0 1,-3 3,-9 2,-5 4,-11 6,-17 3,-6 5,-12 7,-18 3,-7 5,-13 7,-19 2,-6 4,-11 6,-15 2,-5 3,-9 4,-11 0,-2 1,-4 1,-5 0,-2 1,-3 1,-4 1,-3 4,-4 8,-4 4,3 8,6 10,10 2,4 4,8 6,13 2,4 4,9 5,13 2,5 4,9 7,13 1,1 2,2 4,2 2,0 3,0 5,0zm-39 -33c0,6 -2,13 -5,19 -3,7 -5,12 -7,15 -2,4 -3,7 -4,11 7,0 15,-3 25,-7 3,-1 5,-2 8,-3 -5,-20 -11,-32 -17,-35z"/>
  <path id="1" fill="#333333" fill-rule="nonzero" d="M482 168c0,-12 -1,-21 -2,-27 1,-2 0,-2 -4,-2 -3,0 -8,0 -13,2 -6,2 -10,4 -14,5 -8,4 -12,8 -13,12l0 42 -11 0c-1,-4 -2,-13 -2,-30 0,-14 1,-24 1,-31 1,-7 1,-11 2,-12 2,-1 4,-2 6,-2 3,0 4,3 4,9 0,2 0,4 -1,7 0,2 0,3 0,4 17,-12 29,-18 39,-18 10,0 16,8 17,25 1,6 1,14 1,24l0 12c0,5 0,9 0,13 -1,1 -2,1 -2,1 -1,0 -1,0 -2,0 -1,0 -3,-1 -4,-1 -1,-4 -2,-8 -2,-12 0,-4 0,-8 0,-12l0 -9z"/>
  <path id="2" fill="#333333" fill-rule="nonzero" d="M553 162c11,0 17,3 17,8 0,5 -3,10 -9,15 -10,9 -22,16 -38,21 -1,0 -1,-1 -2,-2 -1,-2 -2,-3 -2,-4 -1,-1 -1,-1 -1,-1 12,-4 21,-9 29,-14 5,-4 7,-7 7,-9 0,-3 -3,-4 -9,-4 -6,0 -14,2 -26,4 -5,0 -10,-2 -14,-5 -3,-3 -5,-7 -5,-10 0,-3 1,-6 3,-9 2,-2 4,-5 7,-7 3,-3 7,-5 11,-7 10,-5 20,-7 31,-7 3,0 6,0 9,1 3,0 4,1 4,3 1,2 1,6 1,11 -6,-3 -13,-4 -20,-4 -10,0 -17,2 -24,5 -6,4 -9,9 -9,15 0,3 2,4 6,4l11 -1c10,-2 17,-3 23,-3z"/>
  <path id="3" fill="#333333" fill-rule="nonzero" d="M638 159c-2,7 -4,14 -6,21 -1,6 -3,11 -4,15 -2,6 -5,9 -8,9 -1,0 -3,0 -5,-2 -5,-5 -11,-16 -20,-33 -8,-17 -13,-27 -13,-31 0,-2 1,-3 2,-4 1,0 3,0 4,0 3,1 6,3 7,5 1,1 2,3 3,5l4 10c4,10 8,20 12,29 3,-3 5,-8 7,-13l5 -13c4,-12 7,-18 11,-18 2,-2 10,7 23,27 5,8 8,13 10,15 1,0 2,-3 3,-9 1,-6 2,-11 3,-16 1,-4 3,-8 4,-12 3,-8 7,-12 12,-12 1,0 2,0 3,1 0,1 1,2 1,2 0,1 0,1 0,2 -2,3 -3,7 -4,12 -2,4 -3,9 -5,13 -1,5 -2,9 -4,14 -1,5 -3,9 -4,12 -4,8 -7,13 -9,13 -1,1 -4,-1 -8,-6 -2,-2 -4,-5 -6,-8 -2,-3 -4,-6 -6,-9 -5,-8 -9,-15 -12,-19z"/>
  <path id="4" fill="#333333" fill-rule="nonzero" d="M738 191c9,0 22,-5 40,-13 1,0 2,1 3,1 1,1 1,2 1,3 -4,7 -12,12 -23,16 -12,4 -23,5 -33,2 -11,-3 -18,-9 -20,-19 -1,-2 -1,-4 -1,-8 0,-3 1,-7 3,-13 2,-5 4,-10 9,-15 4,-5 8,-8 14,-11 5,-3 11,-4 18,-4 5,0 12,2 19,6 4,2 7,4 9,6 2,3 3,5 3,8 0,1 0,1 0,2 -1,6 -4,10 -9,12 -3,1 -6,1 -9,1l-22 -1c-8,0 -13,2 -17,5 -2,2 -4,4 -5,8 3,9 9,14 20,14zm27 -48c-2,-1 -5,-3 -7,-3 -3,-1 -5,-1 -6,-1 -2,0 -5,0 -8,1 -4,1 -7,2 -10,4 -7,3 -11,6 -11,10 9,1 15,1 19,1 11,0 19,-1 23,-3 2,-1 3,-2 3,-4 0,-1 -1,-3 -3,-5z"/>
  <path id="5" fill="#333333" fill-rule="nonzero" d="M867 145c-5,-3 -10,-4 -17,-4 -6,0 -12,1 -18,3 -10,5 -17,10 -21,17 -1,3 -2,6 -2,10 0,0 0,2 0,5 0,3 0,6 1,11 1,5 2,10 2,15 -2,0 -4,0 -5,0 -2,1 -3,1 -4,1 -1,0 -1,0 -2,-1 -1,-1 -1,-3 -2,-5 0,-1 0,-2 -1,-5 0,-3 0,-7 -1,-11 0,-4 -1,-8 -2,-13 0,-5 -1,-10 -1,-14 -1,-11 -2,-18 -3,-23 0,-2 2,-4 6,-4 2,0 3,1 5,3 1,2 2,4 3,6 0,3 1,5 1,7 0,2 1,4 1,5 13,-12 30,-18 50,-18 2,0 5,0 7,0 1,0 1,0 2,0 1,0 2,0 3,2 1,1 2,3 2,5 0,5 -2,8 -4,8z"/>
  <path id="6" fill="#333333" fill-rule="nonzero" d="M940 185c4,-2 8,-3 12,-5 4,-1 8,-2 11,-2 4,0 6,1 6,4 0,0 0,1 -1,2 0,1 -1,2 -4,4 -2,1 -5,3 -9,4 -3,1 -7,3 -12,4 -4,1 -8,2 -12,3 -9,1 -15,2 -18,2 -4,0 -8,0 -12,-1 -4,-1 -8,-2 -11,-4 -9,-4 -13,-11 -13,-19 0,-1 0,-2 0,-4 0,-1 1,-4 2,-8 2,-3 4,-6 7,-10 3,-3 7,-6 11,-9 9,-6 18,-10 27,-12 3,-1 6,-1 8,-1 2,0 4,0 6,0 1,0 3,0 4,0 2,0 3,1 4,1 3,2 4,4 4,8 0,3 -2,5 -5,7 -1,1 -2,1 -3,2 0,-2 -1,-4 -2,-6 0,-2 -2,-2 -5,-2 -12,2 -22,6 -31,11 -10,6 -15,12 -15,18 0,1 0,2 0,3 0,6 3,11 8,14 4,2 9,3 14,3 6,0 12,-1 16,-2 4,-2 9,-3 13,-5z"/>
  <path id="7" fill="#333333" fill-rule="nonzero" d="M1037 176c-7,12 -18,19 -30,22 -3,1 -6,1 -8,1 -3,0 -5,0 -6,0 -2,0 -4,0 -6,-1 -2,0 -3,-1 -5,-2 -4,-2 -6,-5 -6,-9 0,-2 0,-4 0,-6 0,-2 0,-5 1,-9 1,-4 3,-8 6,-12 3,-5 6,-9 10,-12 8,-8 17,-13 26,-15 3,-1 5,-1 8,-1 2,0 4,0 6,0 6,0 10,4 12,12 1,5 2,12 2,22 0,9 1,16 1,21 0,5 1,9 2,13l-9 0c-1,-2 -1,-5 -1,-7 0,-2 -1,-4 -1,-6 0,-4 -1,-8 -2,-11zm0 -24c0,-6 -3,-9 -9,-9 -1,0 -1,0 -2,0 -8,0 -15,4 -24,11 -4,3 -7,7 -10,11 -4,6 -6,11 -6,15 0,6 4,10 11,11 9,0 18,-4 26,-12 4,-4 6,-8 9,-12 3,-6 5,-11 5,-15z"/>
  <path id="8" fill="#333333" fill-rule="nonzero" d="M1109 162c12,0 17,3 17,8 0,5 -3,10 -9,15 -9,9 -22,16 -38,21 0,0 -1,-1 -2,-2 -1,-2 -2,-3 -2,-4 0,-1 -1,-1 -1,-1 12,-4 21,-9 29,-14 5,-4 8,-7 8,-9 0,-3 -3,-4 -9,-4 -6,0 -15,2 -27,4 -5,0 -10,-2 -14,-5 -3,-3 -5,-7 -5,-10 0,-3 1,-6 3,-9 2,-2 4,-5 7,-7 3,-3 7,-5 11,-7 10,-5 20,-7 31,-7 3,0 6,0 9,1 3,0 4,1 5,3 0,2 0,6 0,11 -6,-3 -13,-4 -20,-4 -10,0 -17,2 -23,5 -7,4 -10,9 -10,15 0,3 2,4 6,4l11 -1c10,-2 18,-3 23,-3z"/>
  <path id="9" fill="#333333" fill-rule="nonzero" d="M1159 187l0 -25c0,-4 0,-7 -1,-10l-24 0 0 -10 23 0 0 -40c0,-1 1,-2 2,-3 1,-1 3,-2 3,-2 1,0 2,0 3,0 1,1 1,1 2,3 2,6 3,16 3,30 0,3 0,7 0,10 3,0 7,-1 10,-1 0,0 3,0 8,0 2,0 4,0 5,0l0 11 -22 -1 0 53c-2,1 -3,2 -4,2 -6,0 -8,-6 -8,-17z"/>
  <path id="rect4728-5" fill="#FF8800" d="M56 26c-13,0 -24,11 -24,24l0 20c92,0 166,74 166,166l14 0c0,6 0,13 -3,19 -7,14 -18,19 -18,19 0,0 29,0 45,-12 10,-9 14,-20 15,-26l9 0c13,0 24,-11 24,-25l0 -161c0,-13 -11,-24 -24,-24l-204 0zm-24 74l0 30c58,0 106,47 106,106l30 0c0,-75 -61,-136 -136,-136zm0 61l0 30c25,0 45,20 45,45l31 0c-1,-42 -34,-75 -76,-75z"/>
  <path id="path4738" fill="black" fill-opacity="0.250980" d="M284 191c0,13 -11,24 -24,24l-9 0c-1,7 -5,18 -15,26 -10,8 -16,9 -26,11 -3,11 -14,20 -19,22 0,0 29,0 45,-12 10,-9 14,-20 15,-26l9 0c13,0 24,-11 24,-25l0 -20zm-212 24c2,2 5,11 5,21l31 0c0,-6 -1,-15 -3,-21l-33 0zm64 0c2,8 2,18 2,21l30 0c0,-6 -1,-17 -2,-21l-30 0zm61 0c1,5 1,10 1,21l14 0c0,-3 0,-19 0,-21l-15 0z"/>
  <path id="path5014" fill="white" fill-opacity="0.400000" d="M56 26c-13,0 -24,10 -24,24l0 12c0,-14 11,-25 24,-25l202 0c14,0 26,17 26,30l0 -17c0,-14 -11,-24 -24,-24l-204 0zm-24 74l0 11c73,1 133,52 136,124l0 0c0,-75 -61,-135 -136,-135zm0 60l0 12c40,0 72,24 75,63l1 0c-1,-41 -34,-75 -76,-75z"/>
 </g>
</svg>
